<!-- Image by Chameleon Design from the Noun Project -->
<svg xmlns="http://www.w3.org/2000/svg" viewBox="0 0 32 32">
  <path fill="#e5e5e5" d="M16 0C7.2 0 0 7.2 0 16 0 24.8 7.2 32 16 32 24.8 32 32 24.8 32 16 32 7.2 24.8 0 16 0zM16 1C24.3 1 31 7.7 31 16 31 24.3 24.3 31 16 31 7.7 31 1 24.3 1 16 1 7.7 7.7 1 16 1zM10 9.2C9.4 9.2 8.8 9.7 8.7 10.3L8.6 10.3C7.8 10.3 7.2 11 7.2 11.7L7.2 15.9C8.8 15.2 10.6 15.2 11.6 15.6 12.7 16.1 13.5 16.9 14.2 17.7 14.2 17.7 14.3 17.7 14.3 17.7 15.2 17 16.1 16.2 17.1 15.5 18 14.9 19.1 14.3 20.2 14.3 21.1 14.4 22.6 14.7 23.7 15.7L23.7 11.7C23.7 11 23 10.3 22.3 10.3L9.3 10.3C9.4 10 9.7 9.8 10 9.8L23.4 9.8C23.9 9.8 24.2 10.1 24.2 10.6L24.2 19.8C24.2 20.1 24 20.5 23.7 20.6L23.7 16.5C22.6 15.3 21.1 14.9 20.2 14.9 19.3 14.9 18.3 15.4 17.4 16 16.4 16.6 15.5 17.5 14.6 18.1 13.7 18.8 12.9 19.3 11.9 19.3 11.8 19.3 11.6 19.2 11.6 19.1 11.6 18.9 11.8 18.8 11.9 18.8 12.5 18.8 13 18.4 13.7 18 13 17.3 12.3 16.5 11.4 16.2 10.5 15.8 8.8 15.8 7.2 16.5L7.2 21.4C7.2 22.2 7.8 22.8 8.6 22.8L22.3 22.8C23 22.8 23.7 22.2 23.7 21.4L23.7 21.1C24.3 21 24.8 20.5 24.8 19.8L24.8 10.6C24.8 9.8 24.2 9.2 23.4 9.2L10 9.2zM15.1 12C15.9 12 16.6 12.7 16.6 13.5 16.6 14.2 15.9 14.9 15.1 14.9 14.3 14.9 13.7 14.2 13.7 13.5 13.7 12.7 14.3 12 15.1 12zM15.1 12.6C14.7 12.6 14.3 13 14.3 13.5 14.3 13.9 14.7 14.3 15.1 14.3 15.6 14.3 16 13.9 16 13.5 16 13 15.6 12.6 15.1 12.6z" />
</svg>
